# xmcd CD database file
#
# Track frame offsets:
#	150
#	14207
#	29592
#	40958
#	54583
#	68146
#	80749
#	95811
#	109152
#	120732
#	135061
#	149458
#	163883
#	176936
#	188179
#	203113
#	214703
#	229482
#
# Disc length: 3224 seconds
#
# Revision: 0
# Processed by: cddbd v1.5.1PL2 Copyright (c) Steve Scherf et al.
# Submitted via: CDex 1.70beta2
#
DISCID=180c9612
DTITLE=Sarah Vaughan - The Divine Sarah Vaughan
DYEAR=1900
DGENRE=Jazz
TTITLE0=East Of The Sun (West Of The Moon)
TTITLE1=Come Rain Or Come Shine
TTITLE2=Perdido
TTITLE3=You're Blasé
TTITLE4=Ain't Misbehavin'
TTITLE5=Sometimes I Feel Like A Motherless Child
TTITLE6=Lover Man
TTITLE7=Don't Worry 'bout Me
TTITLE8=Gentleman Friend
TTITLE9=The One I Love Belongs To Somebody Elsd
TTITLE10=Don't Blame Me
TTITLE11=Penthouse Serenade (When We're Alone)
TTITLE12=Mean To Me
TTITLE13=I Can't Get Started
TTITLE14=Black Coffee
TTITLE15=I Love The Guy
TTITLE16=Summertime
TTITLE17=What A Difference A Day Makes
EXTD=
EXTT0=
EXTT1=
EXTT2=
EXTT3=
EXTT4=
EXTT5=
EXTT6=
EXTT7=
EXTT8=
EXTT9=
EXTT10=
EXTT11=
EXTT12=
EXTT13=
EXTT14=
EXTT15=
EXTT16=
EXTT17=
PLAYORDER=
